
<svg width="293px" height="19px" viewBox="0 0 293 19" version="1.1" xmlns="http://www.w3.org/2000/svg" xmlns:xlink="http://www.w3.org/1999/xlink">
    <g id="Symbols" stroke="none" stroke-width="1" fill="none" fill-rule="evenodd">
        <g id="logo/fbfordevelopers" fill-rule="nonzero">
            <g id="FBDV_logo">
                <path d="M142.9202,5.93226872 L141.096593,5.93226872 L141.096593,4.48580679 L142.924637,4.48580679 L142.924637,3.40317884 C142.924637,1.51301693 144.069383,0.63005397 145.435979,0.63005397 C145.831774,0.611787132 146.22718,0.67366368 146.598473,0.811970961 L146.598473,2.25843289 C146.339739,2.14362484 146.060641,2.08177069 145.777628,2.0765159 C144.810362,2.0765159 144.530831,2.60008188 144.530831,3.58065883 L144.530831,4.46805879 L146.598473,4.46805879 L146.598473,5.91452072 L144.530831,5.91452072 L144.530831,15.0857993 L142.924637,15.0857993 L142.9202,5.93226872 Z" id="Path" fill="#344854"></path>
                <path d="M148.741544,9.78802154 C148.741544,6.49576769 150.933422,4.2861418 153.92396,4.2861418 C156.914498,4.2861418 159.106375,6.50464169 159.106375,9.78802154 C159.106375,13.0714014 156.914498,15.2899013 153.92396,15.2899013 C150.933422,15.2899013 148.741544,13.0580904 148.741544,9.78802154 Z M157.500182,9.78802154 C157.500182,7.51627764 156.111401,5.73260373 153.92396,5.73260373 C151.736519,5.73260373 150.347738,7.50740364 150.347738,9.78802154 C150.347738,12.0686394 151.736519,13.8434393 153.92396,13.8434393 C156.111401,13.8434393 157.513493,12.0375804 157.513493,9.78802154 L157.500182,9.78802154 Z" id="Shape" fill="#344854"></path>
                <path d="M168.605992,4.46362179 L168.605992,5.98994972 C168.230453,5.86273348 167.835441,5.80265573 167.439061,5.81246972 C165.451285,5.81246972 164.244421,7.31661265 164.244421,9.94775353 L164.244421,15.0857993 L162.616042,15.0857993 L162.616042,4.48580679 L164.062504,4.48580679 L164.506204,5.73260373 C164.949904,4.92950677 166.090213,4.2861418 167.478994,4.2861418 C167.862455,4.27426999 168.244739,4.33447208 168.605992,4.46362179 Z" id="Path" fill="#344854"></path>
                <path d="M177.657472,1.03382095 L182.094471,1.03382095 C185.848173,1.03382095 188.883081,2.99941186 188.883081,8.06202862 C188.883081,13.1246454 185.848173,15.0857993 182.094471,15.0857993 L177.657472,15.0857993 L177.657472,1.03382095 Z M182.174337,13.5816564 C185.147127,13.5816564 187.197021,12.1573794 187.197021,8.06202862 C187.197021,3.96667781 185.147127,2.53796388 182.174337,2.53796388 L179.343531,2.53796388 L179.343531,13.5816564 L182.174337,13.5816564 Z" id="Shape" fill="#344854"></path>
                <path d="M191.833686,9.84570253 C191.833686,6.97496367 193.781529,4.2861418 196.953984,4.2861418 C200.55239,4.2861418 201.88349,6.89509767 201.88349,9.46412055 L201.88349,10.2050995 L193.408821,10.2050995 C193.510872,12.3126744 194.837535,13.8390023 196.958421,13.8390023 C198.23791,13.9211923 199.45524,13.2782365 200.108691,12.1751274 L201.333302,13.0181574 C200.387485,14.4955188 198.728943,15.3602579 196.976169,15.2899013 C194.203044,15.2899013 191.833686,13.4796054 191.833686,9.84570253 Z M200.308355,8.76307458 C200.144186,7.39647865 199.465326,5.73260373 196.953984,5.73260373 C195.193688,5.70285967 193.698254,7.01400439 193.497561,8.76307458 L200.308355,8.76307458 Z" id="Shape" fill="#344854"></path>
                <polygon id="Path" fill="#344854" points="204.039872 4.48580679 205.814672 4.48580679 209.169044 13.1024604 212.581097 4.48580679 214.30709 4.48580679 209.945519 15.0857993 208.419191 15.0857993"></polygon>
                <path d="M216.308177,9.84570253 C216.308177,6.97496367 218.25602,4.2861418 221.428474,4.2861418 C225.004696,4.2861418 226.371292,6.89509767 226.371292,9.46412055 L226.371292,10.2050995 L217.896623,10.2050995 C217.998674,12.3126744 219.3209,13.8390023 221.446222,13.8390023 C222.71999,13.9114106 223.927976,13.2680637 224.578744,12.1706904 L225.803356,13.0137204 C224.857539,14.4910818 223.198997,15.3558209 221.446222,15.2854643 C218.677535,15.2899013 216.308177,13.4796054 216.308177,9.84570253 Z M224.782846,8.76307458 C224.623114,7.39647865 223.939816,5.73260373 221.428474,5.73260373 C219.6691,5.70308229 218.175055,7.01469238 217.976489,8.76307458 L224.782846,8.76307458 Z" id="Shape" fill="#344854"></path>
                <polygon id="Path" fill="#344854" points="229.880959 0.829718961 231.49159 0.829718961 231.49159 15.0857993 229.880959 15.0857993"></polygon>
                <path d="M235.001257,9.78802154 C235.001257,6.49576769 237.193135,4.2861418 240.183673,4.2861418 C243.17421,4.2861418 245.366088,6.50464169 245.366088,9.78802154 C245.366088,13.0714014 243.17421,15.2899013 240.183673,15.2899013 C237.193135,15.2899013 235.001257,13.0580904 235.001257,9.78802154 Z M243.759894,9.78802154 C243.759894,7.51627764 242.371113,5.73260373 240.183673,5.73260373 C237.996232,5.73260373 236.607451,7.50740364 236.607451,9.78802154 C236.607451,12.0686394 237.996232,13.8434393 240.183673,13.8434393 C242.371113,13.8434393 243.759894,12.0375804 243.759894,9.78802154 Z" id="Shape" fill="#344854"></path>
                <path d="M259.05867,9.80576953 C259.05867,12.8584254 257.28387,15.2899013 254.058171,15.2899013 C252.309993,15.2899013 251.107566,14.5666703 250.486386,13.6038414 L250.486386,18.7019541 L248.880192,18.7019541 L248.880192,4.50355479 L250.322217,4.50355479 L250.765917,5.80803272 C251.564719,4.80302645 252.797992,4.24334849 254.080356,4.3038898 C257.270559,4.2861418 259.05867,6.75311368 259.05867,9.80576953 Z M257.452476,9.80576953 C257.452476,7.31661265 256.028199,5.75035173 253.902876,5.75035173 C251.777553,5.75035173 250.353276,7.31661265 250.353276,9.80576953 C250.353276,12.2949264 251.777553,13.8611873 253.902876,13.8611873 C256.028199,13.8611873 257.452476,12.2771784 257.452476,9.78802154 L257.452476,9.80576953 Z" id="Shape" fill="#344854"></path>
                <path d="M261.889476,9.84570253 C261.889476,6.97496367 263.837318,4.2861418 267.009773,4.2861418 C270.585995,4.2861418 271.948154,6.89509767 271.948154,9.46412055 L271.948154,10.2050995 L263.477921,10.2050995 C263.575535,12.3126744 264.902198,13.8390023 267.027521,13.8390023 C268.301289,13.9114106 269.509275,13.2680637 270.160043,12.1706904 L271.384655,13.0137204 C270.436951,14.4890176 268.779683,15.353092 267.027521,15.2854643 C264.258833,15.2899013 261.889476,13.4796054 261.889476,9.84570253 Z M270.364145,8.76307458 C270.204413,7.39647865 269.521115,5.73260373 267.009773,5.73260373 C265.250399,5.70308229 263.756354,7.01469238 263.557787,8.76307458 L270.364145,8.76307458 Z" id="Shape" fill="#344854"></path>
                <path d="M281.425586,4.46362179 L281.425586,5.98994972 C281.051584,5.86270664 280.658023,5.80262105 280.263092,5.81246972 C278.275316,5.81246972 277.068452,7.31661265 277.068452,9.94775353 L277.068452,15.0857993 L275.462258,15.0857993 L275.462258,4.48580679 L276.90872,4.48580679 L277.35242,5.73260373 C277.79612,4.92950677 278.936429,4.2861418 280.320773,4.2861418 C280.696847,4.27651854 281.071447,4.33669522 281.425586,4.46362179 L281.425586,4.46362179 Z" id="Path" fill="#344854"></path>
                <path d="M283.65296,12.8672994 L285.081673,12.1218834 C285.610183,13.2446484 286.777177,13.924365 288.01453,13.8301283 C289.70059,13.8301283 290.561368,13.0669644 290.561368,12.0819504 C290.561368,11.0969365 289.718338,10.6754215 287.672881,10.3559575 C285.764971,10.0542415 284.176526,9.25114456 284.176526,7.20125066 C284.176526,5.33771075 286.026754,4.2728308 287.930227,4.2728308 C289.414345,4.20564557 290.848263,4.81808196 291.825913,5.93670572 L290.703352,6.90397167 C290.03288,6.10924995 289.031011,5.6714446 287.992345,5.71929273 C286.661245,5.71929273 285.725038,6.2783547 285.725038,7.20125066 C285.725038,8.3282486 286.687867,8.64771259 288.573592,8.97605057 C290.54362,9.33988456 292.149814,9.90338353 292.149814,12.0109584 C292.149814,13.9188683 290.601301,15.2632793 287.992345,15.2632793 C286.244167,15.2899013 284.411686,14.4246863 283.65296,12.8672994 Z" id="Path" fill="#344854"></path>
                <path d="M11.0481295,0.909584957 L11.0481295,2.77312487 C11.050691,2.82682368 11.0304788,2.8791112 10.9924648,2.91712517 C10.9544508,2.95513914 10.9021633,2.97535138 10.8484645,2.97278986 L2.86186486,2.97278986 L2.86186486,6.77973568 L9.45080955,6.77973568 C9.50450837,6.77717416 9.55679588,6.7973864 9.59480985,6.83540037 C9.63282382,6.87341434 9.65303606,6.92570185 9.65047454,6.97940067 L9.65047454,8.84294058 C9.65434829,8.89738559 9.63471786,8.95088257 9.59654854,8.9899001 C9.55837921,9.02891763 9.50532654,9.04971893 9.45080955,9.04704257 L2.85299086,9.04704257 L2.85299086,14.6731583 C2.85566723,14.7276753 2.83486592,14.780728 2.79584839,14.8188973 C2.75683086,14.8570666 2.70333388,14.876697 2.64888887,14.8728233 L0.647801969,14.8728233 C0.593356962,14.876697 0.539859981,14.8570666 0.500842452,14.8188973 C0.461824923,14.780728 0.441023617,14.7276753 0.443699979,14.6731583 L0.443699979,0.918458956 C0.43848468,0.86210114 0.457984196,0.806253841 0.497145079,0.765390312 C0.536305961,0.724526782 0.591273329,0.702669507 0.647801969,0.705482967 L10.8529015,0.705482967 C10.9066616,0.704100029 10.9585088,0.725469631 10.9956814,0.764331809 C11.0328539,0.803193986 11.0518992,0.855939323 11.0481295,0.909584957 Z" id="Path" fill="#677B8C"></path>
                <path d="M27.3585407,14.8728233 L25.1400408,14.8728233 C25.0275953,14.8811887 24.9274153,14.8022006 24.9093168,14.6909063 C24.6164748,13.5284124 24.2615148,12.3038004 23.8577479,11.0703145 L17.1001972,11.0703145 C16.6964302,12.3038004 16.3414702,13.5284124 16.0575022,14.6909063 C16.0394038,14.8022006 15.9392238,14.8811887 15.8267782,14.8728233 L13.7014553,14.8728233 C13.5594714,14.8728233 13.4751684,14.7929573 13.5195384,14.6509733 C14.8885332,9.96395557 16.6197392,5.39042685 18.6975171,0.971702954 C18.7521791,0.80859474 18.907148,0.700476902 19.0790991,0.705482967 L21.954275,0.705482967 C22.1310528,0.694381356 22.2931579,0.803665714 22.3491679,0.971702954 C24.4377752,5.38482103 26.1750706,9.9557923 27.5448947,14.6420993 C27.5848277,14.7929573 27.5093987,14.8728233 27.3585407,14.8728233 Z M23.1212059,8.87399958 C22.3802269,6.83741668 21.563819,4.79639677 20.720789,2.93285686 L20.24603,2.93285686 C19.4074371,4.79639677 18.5777181,6.83741668 17.8367392,8.88287358 L23.1212059,8.87399958 Z" id="Shape" fill="#677B8C"></path>
                <path d="M30.9835695,7.91117062 C30.9835695,3.51854083 33.8764934,0.443699979 38.0073402,0.443699979 L38.3090562,0.443699979 C40.6454611,0.383719489 42.8231018,1.62198581 43.9662309,3.66052483 C44.0029809,3.70506401 44.0164032,3.76440536 44.0023984,3.82042468 C43.9883935,3.876444 43.948625,3.92248763 43.8952389,3.94449281 L42.120439,4.83189277 C42.0618139,4.86981068 41.9899407,4.88131384 41.9224098,4.86358696 C41.8548789,4.84586009 41.7979221,4.80053907 41.765479,4.73871578 C41.0713072,3.44096484 39.6849271,2.66632494 38.2158792,2.75537687 L37.9097262,2.75537687 C35.3096443,2.75537687 33.5215334,4.81858177 33.5215334,7.81355663 C33.5215334,10.8085315 35.2963333,12.8362404 37.9097262,12.8362404 L38.2158792,12.8362404 C39.9152501,12.8362404 40.9047011,12.2594304 41.667865,11.3764675 C41.7439106,11.2705675 41.8879979,11.2398289 42.00064,11.3054755 L43.8331209,12.1928754 C43.890584,12.2170924 43.9287008,12.272535 43.9307349,12.3348594 C43.9273092,12.3898439 43.9071861,12.4424737 43.8730539,12.4857174 C42.750493,14.1229703 40.7227841,15.1479173 38.2558122,15.1479173 L37.9540962,15.1479173 C33.7655684,15.1390433 30.9835695,12.2549934 30.9835695,7.91117062 Z" id="Path" fill="#677B8C"></path>
                <path d="M60.0858511,12.8096184 L60.0858511,14.6731583 C60.0885275,14.7276753 60.0677262,14.780728 60.0287087,14.8188973 C59.9896911,14.8570666 59.9361942,14.876697 59.8817492,14.8728233 L49.2506977,14.8728233 C49.1962527,14.876697 49.1427557,14.8570666 49.1037381,14.8188973 C49.0647206,14.780728 49.0439193,14.7276753 49.0465957,14.6731583 L49.0465957,0.918458956 C49.0413804,0.86210114 49.0608799,0.806253841 49.1000408,0.765390312 C49.1392017,0.724526782 49.194169,0.702669507 49.2506977,0.705482967 L59.6909582,0.705482967 C59.7458333,0.702926418 59.7992461,0.723607763 59.8380907,0.762452395 C59.8769354,0.801297028 59.8976167,0.854709872 59.8950602,0.909584957 L59.8950602,2.77312487 C59.8977365,2.82764185 59.8769352,2.88069453 59.8379177,2.91886385 C59.7989002,2.95703317 59.7454032,2.9766636 59.6909582,2.97278986 L51.4691976,2.97278986 L51.4691976,6.65549968 L58.1690672,6.65549968 C58.2235842,6.65282332 58.2766369,6.67362463 58.3148062,6.71264216 C58.3529755,6.75165969 58.372606,6.80515667 58.3687322,6.85960167 L58.3687322,8.70095659 C58.372606,8.75540159 58.3529755,8.80889858 58.3148062,8.8479161 C58.2766369,8.88693363 58.2235842,8.90773494 58.1690672,8.90505858 L51.4691976,8.90505858 L51.4691976,12.6055164 L59.8994972,12.6055164 C59.9512937,12.6078172 60.0000476,12.6306271 60.0350068,12.6689158 C60.0699661,12.7072045 60.0882589,12.7578268 60.0858511,12.8096184 Z" id="Path" fill="#677B8C"></path>
                <path d="M78.3796013,10.9860115 C78.3796013,13.4662944 76.4761284,14.8728233 73.1173195,14.8728233 L66.1556669,14.8728233 C66.101968,14.8753848 66.0496805,14.8551726 66.0116666,14.8171586 C65.9736526,14.7791446 65.9534403,14.7268571 65.9560019,14.6731583 L65.9560019,0.918458956 C65.9521281,0.864013949 65.9717586,0.810516968 66.0099279,0.771499439 C66.0480972,0.73248191 66.1011499,0.711680605 66.1556669,0.714356966 L72.5005766,0.714356966 C75.7706454,0.714356966 77.5498823,2.0099609 77.5498823,4.37931879 C77.5498823,5.93670572 76.7600964,6.95721567 75.1627764,7.43641165 C77.4078983,7.90229662 78.3796013,9.24670756 78.3796013,10.9860115 Z M72.4517696,2.91067186 L68.3608558,2.91067186 L68.3608558,6.71761768 L72.4517696,6.71761768 C74.2842505,6.71761768 75.1139694,6.11862271 75.1139694,4.81414477 C75.1139694,3.50966683 74.2842505,2.91067186 72.4517696,2.91067186 Z M75.9126294,10.7774725 C75.9126294,9.44637255 75.0252294,8.86068858 73.1306305,8.86068858 L68.3608558,8.86068858 L68.3608558,12.6676344 L73.1306305,12.6676344 C75.0740364,12.6676344 75.9126294,12.0996984 75.9126294,10.7774725 Z" id="Shape" fill="#677B8C"></path>
                <path d="M82.6213731,7.79137163 C82.6213731,3.51854083 85.4521789,0.443699979 89.9069267,0.443699979 L90.2086427,0.443699979 C94.6456425,0.443699979 97.4941964,3.51854083 97.4941964,7.79137163 C97.4941964,12.0642024 94.6633905,15.1390433 90.2086427,15.1390433 L89.9069267,15.1390433 C85.4521789,15.1390433 82.6213731,12.0597654 82.6213731,7.79137163 Z M90.2086427,12.8318034 C93.1148776,12.8318034 94.9473585,10.8351535 94.9473585,7.79137163 C94.9473585,4.74758977 93.1148776,2.75093987 90.2086427,2.75093987 L89.9069267,2.75093987 C87.0006919,2.75093987 85.190396,4.74315277 85.190396,7.79137163 C85.190396,10.8395905 87.0228769,12.8318034 89.9291117,12.8318034 L90.2086427,12.8318034 Z" id="Shape" fill="#677B8C"></path>
                <path d="M101.607295,7.79137163 C101.607295,3.51854083 104.438101,0.443699979 108.888412,0.443699979 L109.194565,0.443699979 C113.631565,0.443699979 116.480118,3.51854083 116.480118,7.79137163 C116.480118,12.0642024 113.644876,15.1390433 109.194565,15.1390433 L108.888412,15.1390433 C104.438101,15.1390433 101.607295,12.0597654 101.607295,7.79137163 Z M109.194565,12.8318034 C112.096363,12.8318034 113.928844,10.8351535 113.928844,7.79137163 C113.928844,4.74758977 112.096363,2.75093987 109.194565,2.75093987 L108.888412,2.75093987 C105.986614,2.75093987 104.154133,4.74315277 104.154133,7.79137163 C104.154133,10.8395905 105.986614,12.8318034 108.888412,12.8318034 L109.194565,12.8318034 Z" id="Shape" fill="#677B8C"></path>
                <path d="M133.935276,14.8728233 L131.335194,14.8728233 C131.195245,14.8849211 131.060169,14.818238 130.984671,14.6997803 C129.179408,12.5974646 127.220242,10.6323665 125.123394,8.82075558 L123.947589,8.82075558 L123.947589,14.6731583 C123.950265,14.7276753 123.929464,14.780728 123.890447,14.8188973 C123.851429,14.8570666 123.797932,14.876697 123.743487,14.8728233 L121.751274,14.8728233 C121.696829,14.876697 121.643332,14.8570666 121.604315,14.8188973 C121.565297,14.780728 121.544496,14.7276753 121.547172,14.6731583 L121.547172,0.918458956 C121.544616,0.863583871 121.565297,0.810171027 121.604142,0.771326395 C121.642986,0.732481763 121.696399,0.711800418 121.751274,0.714356966 L123.752361,0.714356966 C123.807236,0.711800418 123.860649,0.732481763 123.899494,0.771326395 C123.938338,0.810171027 123.95902,0.863583871 123.956463,0.918458956 L123.956463,6.49576769 L125.150016,6.49576769 C127.079134,4.77621838 128.852,2.88902139 130.447794,0.856340959 C130.512178,0.75351979 130.628622,0.695297645 130.74951,0.705482967 L133.220919,0.705482967 C133.340718,0.705482967 133.402836,0.767600964 133.402836,0.84746696 C133.396904,0.904331755 133.371879,0.957508822 133.331844,0.998324953 C131.426911,3.37920486 129.309111,5.58165725 127.004682,7.57839564 C129.541468,9.73601285 131.896574,12.0985383 134.046201,14.6420993 C134.157126,14.7530243 134.095008,14.8728233 133.935276,14.8728233 Z" id="Path" fill="#677B8C"></path>
            </g>
        </g>
    </g>
</svg>
